<svg xmlns="http://www.w3.org/2000/svg" viewBox="0 0 80 48">
  <!-- Truck bed / dumpster -->
  <rect x="4" y="10" width="44" height="26" rx="2" fill="#1C2B3A"/>
  <!-- Dumpster slots -->
  <rect x="10" y="16" width="6" height="14" rx="1" fill="#F97316"/>
  <rect x="20" y="16" width="6" height="14" rx="1" fill="#F97316"/>
  <rect x="30" y="16" width="6" height="14" rx="1" fill="#F97316"/>
  <!-- Truck cab -->
  <path d="M 48 20 L 48 36 L 76 36 L 76 24 L 66 20 Z" fill="#1C2B3A"/>
  <!-- Cab window -->
  <path d="M 52 22 L 52 30 L 64 30 L 64 22 L 56 22 Z" fill="#F97316" opacity="0.8"/>
  <!-- Wheels -->
  <circle cx="18" cy="38" r="6" fill="#374151"/>
  <circle cx="18" cy="38" r="3" fill="#1C2B3A"/>
  <circle cx="54" cy="38" r="6" fill="#374151"/>
  <circle cx="54" cy="38" r="3" fill="#1C2B3A"/>
  <circle cx="68" cy="38" r="6" fill="#374151"/>
  <circle cx="68" cy="38" r="3" fill="#1C2B3A"/>
  <!-- Axle line -->
  <line x1="4" y1="36" x2="76" y2="36" stroke="#374151" stroke-width="2"/>
</svg>
